<?xml version="1.0" encoding="UTF-8" standalone="no"?>
<!DOCTYPE svg PUBLIC "-//W3C//DTD SVG 1.1//EN"
 "http://www.w3.org/Graphics/SVG/1.1/DTD/svg11.dtd">
<!-- Generated by graphviz version 2.47.0 (20210316.0004)
 -->
<!-- Title: dbml Pages: 1 -->
<svg width="1314pt" height="3016pt"
 viewBox="0.00 0.00 1313.96 3016.35" xmlns="http://www.w3.org/2000/svg" xmlns:xlink="http://www.w3.org/1999/xlink">
<g id="graph0" class="graph" transform="scale(1 1) rotate(0) translate(4 3012.35)">
<title>dbml</title>
<!-- BloodGlucoseReading -->
<g id="BloodGlucoseReading" class="node">
<title>BloodGlucoseReading</title>
<ellipse fill="none" stroke="black" stroke-width="0" cx="330.93" cy="-832.81" rx="330.85" ry="214.92"/>
<polygon fill="#1d71b8" stroke="transparent" points="98.93,-922.81 98.93,-982.81 562.93,-982.81 562.93,-922.81 98.93,-922.81"/>
<polygon fill="none" stroke="#29235c" points="98.93,-922.81 98.93,-982.81 562.93,-982.81 562.93,-922.81 98.93,-922.81"/>
<text text-anchor="start" x="109.52" y="-944.01" font-family="Helvetica,sans-Serif" font-weight="bold" font-size="32.00" fill="#ffffff"> &#160;&#160;&#160;&#160;&#160;&#160;BloodGlucoseReading &#160;&#160;&#160;&#160;&#160;&#160;</text>
<polygon fill="#e7e2dd" stroke="transparent" points="98.93,-862.81 98.93,-922.81 562.93,-922.81 562.93,-862.81 98.93,-862.81"/>
<polygon fill="none" stroke="#29235c" points="98.93,-862.81 98.93,-922.81 562.93,-922.81 562.93,-862.81 98.93,-862.81"/>
<text text-anchor="start" x="109.93" y="-884.01" font-family="Helvetica,sans-Serif" font-weight="bold" font-size="32.00" fill="#29235c">id</text>
<text text-anchor="start" x="134.82" y="-884.01" font-family="Helvetica,sans-Serif" font-size="32.00" fill="#29235c"> &#160;&#160;&#160;</text>
<text text-anchor="start" x="409.71" y="-884.01" font-family="Helvetica,sans-Serif" font-style="italic" font-size="32.00" fill="#29235c">INTEGER</text>
<polygon fill="#e7e2dd" stroke="transparent" points="98.93,-802.81 98.93,-862.81 562.93,-862.81 562.93,-802.81 98.93,-802.81"/>
<polygon fill="none" stroke="#29235c" points="98.93,-802.81 98.93,-862.81 562.93,-862.81 562.93,-802.81 98.93,-802.81"/>
<text text-anchor="start" x="109.93" y="-823.01" font-family="Helvetica,sans-Serif" font-size="32.00" fill="#29235c">patient_id &#160;&#160;&#160;</text>
<text text-anchor="start" x="409.71" y="-824.01" font-family="Helvetica,sans-Serif" font-style="italic" font-size="32.00" fill="#29235c">INTEGER</text>
<polygon fill="#e7e2dd" stroke="transparent" points="98.93,-742.81 98.93,-802.81 562.93,-802.81 562.93,-742.81 98.93,-742.81"/>
<polygon fill="none" stroke="#29235c" points="98.93,-742.81 98.93,-802.81 562.93,-802.81 562.93,-742.81 98.93,-742.81"/>
<text text-anchor="start" x="109.93" y="-763.01" font-family="Helvetica,sans-Serif" font-size="32.00" fill="#29235c">reading_date &#160;&#160;&#160;</text>
<text text-anchor="start" x="466.59" y="-764.01" font-family="Helvetica,sans-Serif" font-style="italic" font-size="32.00" fill="#29235c">DATE</text>
<polygon fill="#e7e2dd" stroke="transparent" points="98.93,-682.81 98.93,-742.81 562.93,-742.81 562.93,-682.81 98.93,-682.81"/>
<polygon fill="none" stroke="#29235c" points="98.93,-682.81 98.93,-742.81 562.93,-742.81 562.93,-682.81 98.93,-682.81"/>
<text text-anchor="start" x="109.93" y="-703.01" font-family="Helvetica,sans-Serif" font-size="32.00" fill="#29235c">glucose_value &#160;&#160;&#160;</text>
<text text-anchor="start" x="448.81" y="-704.01" font-family="Helvetica,sans-Serif" font-style="italic" font-size="32.00" fill="#29235c">FLOAT</text>
<polygon fill="none" stroke="#29235c" stroke-width="2" points="97.93,-681.81 97.93,-983.81 563.93,-983.81 563.93,-681.81 97.93,-681.81"/>
</g>
<!-- Patient -->
<g id="Patient" class="node">
<title>Patient</title>
<ellipse fill="none" stroke="black" stroke-width="0" cx="1001.91" cy="-1360.81" rx="270.23" ry="427.19"/>
<polygon fill="#1d71b8" stroke="transparent" points="812.91,-1600.81 812.91,-1660.81 1190.91,-1660.81 1190.91,-1600.81 812.91,-1600.81"/>
<polygon fill="none" stroke="#29235c" points="812.91,-1600.81 812.91,-1660.81 1190.91,-1660.81 1190.91,-1600.81 812.91,-1600.81"/>
<text text-anchor="start" x="889.86" y="-1622.01" font-family="Helvetica,sans-Serif" font-weight="bold" font-size="32.00" fill="#ffffff"> &#160;&#160;&#160;&#160;&#160;&#160;Patient &#160;&#160;&#160;&#160;&#160;&#160;</text>
<polygon fill="#e7e2dd" stroke="transparent" points="812.91,-1540.81 812.91,-1600.81 1190.91,-1600.81 1190.91,-1540.81 812.91,-1540.81"/>
<polygon fill="none" stroke="#29235c" points="812.91,-1540.81 812.91,-1600.81 1190.91,-1600.81 1190.91,-1540.81 812.91,-1540.81"/>
<text text-anchor="start" x="823.91" y="-1562.01" font-family="Helvetica,sans-Serif" font-weight="bold" font-size="32.00" fill="#29235c">id</text>
<text text-anchor="start" x="848.8" y="-1562.01" font-family="Helvetica,sans-Serif" font-size="32.00" fill="#29235c"> &#160;&#160;&#160;</text>
<text text-anchor="start" x="1037.69" y="-1562.01" font-family="Helvetica,sans-Serif" font-style="italic" font-size="32.00" fill="#29235c">INTEGER</text>
<polygon fill="#e7e2dd" stroke="transparent" points="812.91,-1480.81 812.91,-1540.81 1190.91,-1540.81 1190.91,-1480.81 812.91,-1480.81"/>
<polygon fill="none" stroke="#29235c" points="812.91,-1480.81 812.91,-1540.81 1190.91,-1540.81 1190.91,-1480.81 812.91,-1480.81"/>
<text text-anchor="start" x="823.91" y="-1501.01" font-family="Helvetica,sans-Serif" font-size="32.00" fill="#29235c">first_name &#160;&#160;&#160;</text>
<text text-anchor="start" x="1023.48" y="-1502.01" font-family="Helvetica,sans-Serif" font-style="italic" font-size="32.00" fill="#29235c">VARCHAR</text>
<polygon fill="#e7e2dd" stroke="transparent" points="812.91,-1420.81 812.91,-1480.81 1190.91,-1480.81 1190.91,-1420.81 812.91,-1420.81"/>
<polygon fill="none" stroke="#29235c" points="812.91,-1420.81 812.91,-1480.81 1190.91,-1480.81 1190.91,-1420.81 812.91,-1420.81"/>
<text text-anchor="start" x="823.91" y="-1441.01" font-family="Helvetica,sans-Serif" font-size="32.00" fill="#29235c">last_name &#160;&#160;&#160;</text>
<text text-anchor="start" x="1023.48" y="-1442.01" font-family="Helvetica,sans-Serif" font-style="italic" font-size="32.00" fill="#29235c">VARCHAR</text>
<polygon fill="#e7e2dd" stroke="transparent" points="812.91,-1360.81 812.91,-1420.81 1190.91,-1420.81 1190.91,-1360.81 812.91,-1360.81"/>
<polygon fill="none" stroke="#29235c" points="812.91,-1360.81 812.91,-1420.81 1190.91,-1420.81 1190.91,-1360.81 812.91,-1360.81"/>
<text text-anchor="start" x="823.91" y="-1381.01" font-family="Helvetica,sans-Serif" font-size="32.00" fill="#29235c">date_of_birth &#160;&#160;&#160;</text>
<text text-anchor="start" x="1094.58" y="-1382.01" font-family="Helvetica,sans-Serif" font-style="italic" font-size="32.00" fill="#29235c">DATE</text>
<polygon fill="#e7e2dd" stroke="transparent" points="812.91,-1300.81 812.91,-1360.81 1190.91,-1360.81 1190.91,-1300.81 812.91,-1300.81"/>
<polygon fill="none" stroke="#29235c" points="812.91,-1300.81 812.91,-1360.81 1190.91,-1360.81 1190.91,-1300.81 812.91,-1300.81"/>
<text text-anchor="start" x="823.91" y="-1321.01" font-family="Helvetica,sans-Serif" font-size="32.00" fill="#29235c">gender &#160;&#160;&#160;</text>
<text text-anchor="start" x="1023.48" y="-1322.01" font-family="Helvetica,sans-Serif" font-style="italic" font-size="32.00" fill="#29235c">VARCHAR</text>
<polygon fill="#e7e2dd" stroke="transparent" points="812.91,-1240.81 812.91,-1300.81 1190.91,-1300.81 1190.91,-1240.81 812.91,-1240.81"/>
<polygon fill="none" stroke="#29235c" points="812.91,-1240.81 812.91,-1300.81 1190.91,-1300.81 1190.91,-1240.81 812.91,-1240.81"/>
<text text-anchor="start" x="823.91" y="-1261.01" font-family="Helvetica,sans-Serif" font-size="32.00" fill="#29235c">weight &#160;&#160;&#160;</text>
<text text-anchor="start" x="1076.79" y="-1262.01" font-family="Helvetica,sans-Serif" font-style="italic" font-size="32.00" fill="#29235c">FLOAT</text>
<polygon fill="#e7e2dd" stroke="transparent" points="812.91,-1180.81 812.91,-1240.81 1190.91,-1240.81 1190.91,-1180.81 812.91,-1180.81"/>
<polygon fill="none" stroke="#29235c" points="812.91,-1180.81 812.91,-1240.81 1190.91,-1240.81 1190.91,-1180.81 812.91,-1180.81"/>
<text text-anchor="start" x="823.91" y="-1201.01" font-family="Helvetica,sans-Serif" font-size="32.00" fill="#29235c">height &#160;&#160;&#160;</text>
<text text-anchor="start" x="1076.79" y="-1202.01" font-family="Helvetica,sans-Serif" font-style="italic" font-size="32.00" fill="#29235c">FLOAT</text>
<polygon fill="#e7e2dd" stroke="transparent" points="812.91,-1120.81 812.91,-1180.81 1190.91,-1180.81 1190.91,-1120.81 812.91,-1120.81"/>
<polygon fill="none" stroke="#29235c" points="812.91,-1120.81 812.91,-1180.81 1190.91,-1180.81 1190.91,-1120.81 812.91,-1120.81"/>
<text text-anchor="start" x="823.91" y="-1141.01" font-family="Helvetica,sans-Serif" font-size="32.00" fill="#29235c">created_at &#160;&#160;&#160;</text>
<text text-anchor="start" x="1018.14" y="-1142.01" font-family="Helvetica,sans-Serif" font-style="italic" font-size="32.00" fill="#29235c">DATETIME</text>
<polygon fill="#e7e2dd" stroke="transparent" points="812.91,-1060.81 812.91,-1120.81 1190.91,-1120.81 1190.91,-1060.81 812.91,-1060.81"/>
<polygon fill="none" stroke="#29235c" points="812.91,-1060.81 812.91,-1120.81 1190.91,-1120.81 1190.91,-1060.81 812.91,-1060.81"/>
<text text-anchor="start" x="823.57" y="-1081.01" font-family="Helvetica,sans-Serif" font-size="32.00" fill="#29235c">updated_at &#160;&#160;&#160;</text>
<text text-anchor="start" x="1018.52" y="-1082.01" font-family="Helvetica,sans-Serif" font-style="italic" font-size="32.00" fill="#29235c">DATETIME</text>
<polygon fill="none" stroke="#29235c" stroke-width="2" points="811.91,-1059.81 811.91,-1661.81 1191.91,-1661.81 1191.91,-1059.81 811.91,-1059.81"/>
</g>
<!-- BloodGlucoseReading&#45;&gt;Patient -->
<!-- BloodGlucoseReading&#45;&gt;Patient -->
<g id="edge2" class="edge">
<title>BloodGlucoseReading:e&#45;&gt;Patient:w</title>
<path fill="none" stroke="#29235c" stroke-width="3" d="M563.93,-832.81C906.4,-832.81 474.91,-1555.76 801.51,-1570.58"/>
<polygon fill="#29235c" stroke="#29235c" stroke-width="3" points="801.83,-1574.09 811.91,-1570.81 801.99,-1567.09 801.83,-1574.09"/>
<text text-anchor="middle" x="805.69" y="-1580.41" font-family="Helvetica,sans-Serif" font-size="32.00" fill="#29235c">*</text>
<text text-anchor="middle" x="555.03" y="-804.01" font-family="Helvetica,sans-Serif" font-size="32.00" fill="#29235c">1</text>
</g>
<!-- Comorbidity -->
<g id="Comorbidity" class="node">
<title>Comorbidity</title>
<ellipse fill="none" stroke="black" stroke-width="0" cx="330.93" cy="-2835.81" rx="300.54" ry="172.57"/>
<polygon fill="#1d71b8" stroke="transparent" points="120.93,-2895.81 120.93,-2955.81 541.93,-2955.81 541.93,-2895.81 120.93,-2895.81"/>
<polygon fill="none" stroke="#29235c" points="120.93,-2895.81 120.93,-2955.81 541.93,-2955.81 541.93,-2895.81 120.93,-2895.81"/>
<text text-anchor="start" x="183.85" y="-2917.01" font-family="Helvetica,sans-Serif" font-weight="bold" font-size="32.00" fill="#ffffff"> &#160;&#160;&#160;&#160;&#160;&#160;Comorbidity &#160;&#160;&#160;&#160;&#160;&#160;</text>
<polygon fill="#e7e2dd" stroke="transparent" points="120.93,-2835.81 120.93,-2895.81 541.93,-2895.81 541.93,-2835.81 120.93,-2835.81"/>
<polygon fill="none" stroke="#29235c" points="120.93,-2835.81 120.93,-2895.81 541.93,-2895.81 541.93,-2835.81 120.93,-2835.81"/>
<text text-anchor="start" x="131.93" y="-2857.01" font-family="Helvetica,sans-Serif" font-weight="bold" font-size="32.00" fill="#29235c">id</text>
<text text-anchor="start" x="156.82" y="-2857.01" font-family="Helvetica,sans-Serif" font-size="32.00" fill="#29235c"> &#160;&#160;&#160;</text>
<text text-anchor="start" x="388.71" y="-2857.01" font-family="Helvetica,sans-Serif" font-style="italic" font-size="32.00" fill="#29235c">INTEGER</text>
<polygon fill="#e7e2dd" stroke="transparent" points="120.93,-2775.81 120.93,-2835.81 541.93,-2835.81 541.93,-2775.81 120.93,-2775.81"/>
<polygon fill="none" stroke="#29235c" points="120.93,-2775.81 120.93,-2835.81 541.93,-2835.81 541.93,-2775.81 120.93,-2775.81"/>
<text text-anchor="start" x="131.93" y="-2796.01" font-family="Helvetica,sans-Serif" font-size="32.00" fill="#29235c">patient_id &#160;&#160;&#160;</text>
<text text-anchor="start" x="388.71" y="-2797.01" font-family="Helvetica,sans-Serif" font-style="italic" font-size="32.00" fill="#29235c">INTEGER</text>
<polygon fill="#e7e2dd" stroke="transparent" points="120.93,-2715.81 120.93,-2775.81 541.93,-2775.81 541.93,-2715.81 120.93,-2715.81"/>
<polygon fill="none" stroke="#29235c" points="120.93,-2715.81 120.93,-2775.81 541.93,-2775.81 541.93,-2715.81 120.93,-2715.81"/>
<text text-anchor="start" x="131.61" y="-2736.01" font-family="Helvetica,sans-Serif" font-size="32.00" fill="#29235c">disease_name &#160;&#160;&#160;</text>
<text text-anchor="start" x="374.71" y="-2737.01" font-family="Helvetica,sans-Serif" font-style="italic" font-size="32.00" fill="#29235c">VARCHAR</text>
<polygon fill="none" stroke="#29235c" stroke-width="2" points="119.43,-2714.81 119.43,-2956.81 542.43,-2956.81 542.43,-2714.81 119.43,-2714.81"/>
</g>
<!-- Comorbidity&#45;&gt;Patient -->
<!-- Comorbidity&#45;&gt;Patient -->
<g id="edge4" class="edge">
<title>Comorbidity:e&#45;&gt;Patient:w</title>
<path fill="none" stroke="#29235c" stroke-width="3" d="M542.93,-2805.81C628.35,-2805.81 628.4,-2733.42 661.85,-2654.81 755.73,-2434.22 574,-1595.05 801.83,-1571.33"/>
<polygon fill="#29235c" stroke="#29235c" stroke-width="3" points="802.1,-1574.82 811.91,-1570.81 801.74,-1567.83 802.1,-1574.82"/>
<text text-anchor="middle" x="805.69" y="-1542.01" font-family="Helvetica,sans-Serif" font-size="32.00" fill="#29235c">*</text>
<text text-anchor="middle" x="534.03" y="-2815.41" font-family="Helvetica,sans-Serif" font-size="32.00" fill="#29235c">1</text>
</g>
<!-- LabResult -->
<g id="LabResult" class="node">
<title>LabResult</title>
<ellipse fill="none" stroke="black" stroke-width="0" cx="330.93" cy="-2345.81" rx="258.6" ry="299.63"/>
<polygon fill="#1d71b8" stroke="transparent" points="149.93,-2495.81 149.93,-2555.81 511.93,-2555.81 511.93,-2495.81 149.93,-2495.81"/>
<polygon fill="none" stroke="#29235c" points="149.93,-2495.81 149.93,-2555.81 511.93,-2555.81 511.93,-2495.81 149.93,-2495.81"/>
<text text-anchor="start" x="196.66" y="-2517.01" font-family="Helvetica,sans-Serif" font-weight="bold" font-size="32.00" fill="#ffffff"> &#160;&#160;&#160;&#160;&#160;&#160;LabResult &#160;&#160;&#160;&#160;&#160;&#160;</text>
<polygon fill="#e7e2dd" stroke="transparent" points="149.93,-2435.81 149.93,-2495.81 511.93,-2495.81 511.93,-2435.81 149.93,-2435.81"/>
<polygon fill="none" stroke="#29235c" points="149.93,-2435.81 149.93,-2495.81 511.93,-2495.81 511.93,-2435.81 149.93,-2435.81"/>
<text text-anchor="start" x="160.93" y="-2457.01" font-family="Helvetica,sans-Serif" font-weight="bold" font-size="32.00" fill="#29235c">id</text>
<text text-anchor="start" x="185.82" y="-2457.01" font-family="Helvetica,sans-Serif" font-size="32.00" fill="#29235c"> &#160;&#160;&#160;</text>
<text text-anchor="start" x="358.71" y="-2457.01" font-family="Helvetica,sans-Serif" font-style="italic" font-size="32.00" fill="#29235c">INTEGER</text>
<polygon fill="#e7e2dd" stroke="transparent" points="149.93,-2375.81 149.93,-2435.81 511.93,-2435.81 511.93,-2375.81 149.93,-2375.81"/>
<polygon fill="none" stroke="#29235c" points="149.93,-2375.81 149.93,-2435.81 511.93,-2435.81 511.93,-2375.81 149.93,-2375.81"/>
<text text-anchor="start" x="160.93" y="-2396.01" font-family="Helvetica,sans-Serif" font-size="32.00" fill="#29235c">patient_id &#160;&#160;&#160;</text>
<text text-anchor="start" x="358.71" y="-2397.01" font-family="Helvetica,sans-Serif" font-style="italic" font-size="32.00" fill="#29235c">INTEGER</text>
<polygon fill="#e7e2dd" stroke="transparent" points="149.93,-2315.81 149.93,-2375.81 511.93,-2375.81 511.93,-2315.81 149.93,-2315.81"/>
<polygon fill="none" stroke="#29235c" points="149.93,-2315.81 149.93,-2375.81 511.93,-2375.81 511.93,-2315.81 149.93,-2315.81"/>
<text text-anchor="start" x="160.93" y="-2336.01" font-family="Helvetica,sans-Serif" font-size="32.00" fill="#29235c">test_date &#160;&#160;&#160;</text>
<text text-anchor="start" x="415.59" y="-2337.01" font-family="Helvetica,sans-Serif" font-style="italic" font-size="32.00" fill="#29235c">DATE</text>
<polygon fill="#e7e2dd" stroke="transparent" points="149.93,-2255.81 149.93,-2315.81 511.93,-2315.81 511.93,-2255.81 149.93,-2255.81"/>
<polygon fill="none" stroke="#29235c" points="149.93,-2255.81 149.93,-2315.81 511.93,-2315.81 511.93,-2255.81 149.93,-2255.81"/>
<text text-anchor="start" x="160.45" y="-2276.01" font-family="Helvetica,sans-Serif" font-size="32.00" fill="#29235c">test_name &#160;&#160;&#160;</text>
<text text-anchor="start" x="344.71" y="-2277.01" font-family="Helvetica,sans-Serif" font-style="italic" font-size="32.00" fill="#29235c">VARCHAR</text>
<polygon fill="#e7e2dd" stroke="transparent" points="149.93,-2195.81 149.93,-2255.81 511.93,-2255.81 511.93,-2195.81 149.93,-2195.81"/>
<polygon fill="none" stroke="#29235c" points="149.93,-2195.81 149.93,-2255.81 511.93,-2255.81 511.93,-2195.81 149.93,-2195.81"/>
<text text-anchor="start" x="160.93" y="-2216.01" font-family="Helvetica,sans-Serif" font-size="32.00" fill="#29235c">result_value &#160;&#160;&#160;</text>
<text text-anchor="start" x="397.81" y="-2217.01" font-family="Helvetica,sans-Serif" font-style="italic" font-size="32.00" fill="#29235c">FLOAT</text>
<polygon fill="#e7e2dd" stroke="transparent" points="149.93,-2135.81 149.93,-2195.81 511.93,-2195.81 511.93,-2135.81 149.93,-2135.81"/>
<polygon fill="none" stroke="#29235c" points="149.93,-2135.81 149.93,-2195.81 511.93,-2195.81 511.93,-2135.81 149.93,-2135.81"/>
<text text-anchor="start" x="160.93" y="-2156.01" font-family="Helvetica,sans-Serif" font-size="32.00" fill="#29235c">unit &#160;&#160;&#160;</text>
<text text-anchor="start" x="344.5" y="-2157.01" font-family="Helvetica,sans-Serif" font-style="italic" font-size="32.00" fill="#29235c">VARCHAR</text>
<polygon fill="none" stroke="#29235c" stroke-width="2" points="148.93,-2134.81 148.93,-2556.81 512.93,-2556.81 512.93,-2134.81 148.93,-2134.81"/>
</g>
<!-- LabResult&#45;&gt;Patient -->
<!-- LabResult&#45;&gt;Patient -->
<g id="edge6" class="edge">
<title>LabResult:e&#45;&gt;Patient:w</title>
<path fill="none" stroke="#29235c" stroke-width="3" d="M512.93,-2405.81C689.78,-2405.81 601.61,-2203.09 661.85,-2036.81 734.77,-1835.54 598.83,-1579.22 801.67,-1571.02"/>
<polygon fill="#29235c" stroke="#29235c" stroke-width="3" points="801.98,-1574.51 811.91,-1570.81 801.84,-1567.51 801.98,-1574.51"/>
<text text-anchor="middle" x="818.13" y="-1580.41" font-family="Helvetica,sans-Serif" font-size="32.00" fill="#29235c">*</text>
<text text-anchor="middle" x="504.03" y="-2415.41" font-family="Helvetica,sans-Serif" font-size="32.00" fill="#29235c">1</text>
</g>
<!-- LifestyleActivity -->
<g id="LifestyleActivity" class="node">
<title>LifestyleActivity</title>
<ellipse fill="none" stroke="black" stroke-width="0" cx="330.93" cy="-1770.81" rx="316.57" ry="257.27"/>
<polygon fill="#1d71b8" stroke="transparent" points="108.93,-1890.81 108.93,-1950.81 552.93,-1950.81 552.93,-1890.81 108.93,-1890.81"/>
<polygon fill="none" stroke="#29235c" points="108.93,-1890.81 108.93,-1950.81 552.93,-1950.81 552.93,-1890.81 108.93,-1890.81"/>
<text text-anchor="start" x="159.34" y="-1912.01" font-family="Helvetica,sans-Serif" font-weight="bold" font-size="32.00" fill="#ffffff"> &#160;&#160;&#160;&#160;&#160;&#160;LifestyleActivity &#160;&#160;&#160;&#160;&#160;&#160;</text>
<polygon fill="#e7e2dd" stroke="transparent" points="108.93,-1830.81 108.93,-1890.81 552.93,-1890.81 552.93,-1830.81 108.93,-1830.81"/>
<polygon fill="none" stroke="#29235c" points="108.93,-1830.81 108.93,-1890.81 552.93,-1890.81 552.93,-1830.81 108.93,-1830.81"/>
<text text-anchor="start" x="119.93" y="-1852.01" font-family="Helvetica,sans-Serif" font-weight="bold" font-size="32.00" fill="#29235c">id</text>
<text text-anchor="start" x="144.82" y="-1852.01" font-family="Helvetica,sans-Serif" font-size="32.00" fill="#29235c"> &#160;&#160;&#160;</text>
<text text-anchor="start" x="399.71" y="-1852.01" font-family="Helvetica,sans-Serif" font-style="italic" font-size="32.00" fill="#29235c">INTEGER</text>
<polygon fill="#e7e2dd" stroke="transparent" points="108.93,-1770.81 108.93,-1830.81 552.93,-1830.81 552.93,-1770.81 108.93,-1770.81"/>
<polygon fill="none" stroke="#29235c" points="108.93,-1770.81 108.93,-1830.81 552.93,-1830.81 552.93,-1770.81 108.93,-1770.81"/>
<text text-anchor="start" x="119.93" y="-1791.01" font-family="Helvetica,sans-Serif" font-size="32.00" fill="#29235c">patient_id &#160;&#160;&#160;</text>
<text text-anchor="start" x="399.71" y="-1792.01" font-family="Helvetica,sans-Serif" font-style="italic" font-size="32.00" fill="#29235c">INTEGER</text>
<polygon fill="#e7e2dd" stroke="transparent" points="108.93,-1710.81 108.93,-1770.81 552.93,-1770.81 552.93,-1710.81 108.93,-1710.81"/>
<polygon fill="none" stroke="#29235c" points="108.93,-1710.81 108.93,-1770.81 552.93,-1770.81 552.93,-1710.81 108.93,-1710.81"/>
<text text-anchor="start" x="119.93" y="-1731.01" font-family="Helvetica,sans-Serif" font-size="32.00" fill="#29235c">activity &#160;&#160;&#160;</text>
<text text-anchor="start" x="385.5" y="-1732.01" font-family="Helvetica,sans-Serif" font-style="italic" font-size="32.00" fill="#29235c">VARCHAR</text>
<polygon fill="#e7e2dd" stroke="transparent" points="108.93,-1650.81 108.93,-1710.81 552.93,-1710.81 552.93,-1650.81 108.93,-1650.81"/>
<polygon fill="none" stroke="#29235c" points="108.93,-1650.81 108.93,-1710.81 552.93,-1710.81 552.93,-1650.81 108.93,-1650.81"/>
<text text-anchor="start" x="119.44" y="-1671.01" font-family="Helvetica,sans-Serif" font-size="32.00" fill="#29235c">duration_minutes &#160;&#160;&#160;</text>
<text text-anchor="start" x="399.82" y="-1672.01" font-family="Helvetica,sans-Serif" font-style="italic" font-size="32.00" fill="#29235c">INTEGER</text>
<polygon fill="#e7e2dd" stroke="transparent" points="108.93,-1590.81 108.93,-1650.81 552.93,-1650.81 552.93,-1590.81 108.93,-1590.81"/>
<polygon fill="none" stroke="#29235c" points="108.93,-1590.81 108.93,-1650.81 552.93,-1650.81 552.93,-1590.81 108.93,-1590.81"/>
<text text-anchor="start" x="119.93" y="-1611.01" font-family="Helvetica,sans-Serif" font-size="32.00" fill="#29235c">date_logged &#160;&#160;&#160;</text>
<text text-anchor="start" x="456.59" y="-1612.01" font-family="Helvetica,sans-Serif" font-style="italic" font-size="32.00" fill="#29235c">DATE</text>
<polygon fill="none" stroke="#29235c" stroke-width="2" points="107.93,-1589.81 107.93,-1951.81 553.93,-1951.81 553.93,-1589.81 107.93,-1589.81"/>
</g>
<!-- LifestyleActivity&#45;&gt;Patient -->
<!-- LifestyleActivity&#45;&gt;Patient -->
<g id="edge8" class="edge">
<title>LifestyleActivity:e&#45;&gt;Patient:w</title>
<path fill="none" stroke="#29235c" stroke-width="3" d="M553.93,-1800.81C704.09,-1800.81 660.41,-1581.03 801.86,-1571.16"/>
<polygon fill="#29235c" stroke="#29235c" stroke-width="3" points="802.03,-1574.65 811.91,-1570.81 801.79,-1567.66 802.03,-1574.65"/>
<text text-anchor="middle" x="818.13" y="-1542.01" font-family="Helvetica,sans-Serif" font-size="32.00" fill="#29235c">*</text>
<text text-anchor="middle" x="545.03" y="-1810.41" font-family="Helvetica,sans-Serif" font-size="32.00" fill="#29235c">1</text>
</g>
<!-- Medication -->
<g id="Medication" class="node">
<title>Medication</title>
<ellipse fill="none" stroke="black" stroke-width="0" cx="1001.91" cy="-359.81" rx="304.11" ry="214.92"/>
<polygon fill="#1d71b8" stroke="transparent" points="788.91,-449.81 788.91,-509.81 1214.91,-509.81 1214.91,-449.81 788.91,-449.81"/>
<polygon fill="none" stroke="#29235c" points="788.91,-449.81 788.91,-509.81 1214.91,-509.81 1214.91,-449.81 788.91,-449.81"/>
<text text-anchor="start" x="862.31" y="-471.01" font-family="Helvetica,sans-Serif" font-weight="bold" font-size="32.00" fill="#ffffff"> &#160;&#160;&#160;&#160;&#160;&#160;Medication &#160;&#160;&#160;&#160;&#160;&#160;</text>
<polygon fill="#e7e2dd" stroke="transparent" points="788.91,-389.81 788.91,-449.81 1214.91,-449.81 1214.91,-389.81 788.91,-389.81"/>
<polygon fill="none" stroke="#29235c" points="788.91,-389.81 788.91,-449.81 1214.91,-449.81 1214.91,-389.81 788.91,-389.81"/>
<text text-anchor="start" x="799.91" y="-411.01" font-family="Helvetica,sans-Serif" font-weight="bold" font-size="32.00" fill="#29235c">id</text>
<text text-anchor="start" x="824.8" y="-411.01" font-family="Helvetica,sans-Serif" font-size="32.00" fill="#29235c"> &#160;&#160;&#160;</text>
<text text-anchor="start" x="1061.69" y="-411.01" font-family="Helvetica,sans-Serif" font-style="italic" font-size="32.00" fill="#29235c">INTEGER</text>
<polygon fill="#e7e2dd" stroke="transparent" points="788.91,-329.81 788.91,-389.81 1214.91,-389.81 1214.91,-329.81 788.91,-329.81"/>
<polygon fill="none" stroke="#29235c" points="788.91,-329.81 788.91,-389.81 1214.91,-389.81 1214.91,-329.81 788.91,-329.81"/>
<text text-anchor="start" x="799.91" y="-350.01" font-family="Helvetica,sans-Serif" font-size="32.00" fill="#29235c">name &#160;&#160;&#160;</text>
<text text-anchor="start" x="1047.48" y="-351.01" font-family="Helvetica,sans-Serif" font-style="italic" font-size="32.00" fill="#29235c">VARCHAR</text>
<polygon fill="#e7e2dd" stroke="transparent" points="788.91,-269.81 788.91,-329.81 1214.91,-329.81 1214.91,-269.81 788.91,-269.81"/>
<polygon fill="none" stroke="#29235c" points="788.91,-269.81 788.91,-329.81 1214.91,-329.81 1214.91,-269.81 788.91,-269.81"/>
<text text-anchor="start" x="799.42" y="-290.01" font-family="Helvetica,sans-Serif" font-size="32.00" fill="#29235c">typical_dosage &#160;&#160;&#160;</text>
<text text-anchor="start" x="1047.7" y="-291.01" font-family="Helvetica,sans-Serif" font-style="italic" font-size="32.00" fill="#29235c">VARCHAR</text>
<polygon fill="#e7e2dd" stroke="transparent" points="788.91,-209.81 788.91,-269.81 1214.91,-269.81 1214.91,-209.81 788.91,-209.81"/>
<polygon fill="none" stroke="#29235c" points="788.91,-209.81 788.91,-269.81 1214.91,-269.81 1214.91,-209.81 788.91,-209.81"/>
<text text-anchor="start" x="799.91" y="-230.01" font-family="Helvetica,sans-Serif" font-size="32.00" fill="#29235c">description &#160;&#160;&#160;</text>
<text text-anchor="start" x="1047.48" y="-231.01" font-family="Helvetica,sans-Serif" font-style="italic" font-size="32.00" fill="#29235c">VARCHAR</text>
<polygon fill="none" stroke="#29235c" stroke-width="2" points="787.91,-208.81 787.91,-510.81 1215.91,-510.81 1215.91,-208.81 787.91,-208.81"/>
</g>
<!-- PatientMedication -->
<g id="PatientMedication" class="node">
<title>PatientMedication</title>
<ellipse fill="none" stroke="black" stroke-width="0" cx="330.93" cy="-299.81" rx="295.64" ry="299.63"/>
<polygon fill="#1d71b8" stroke="transparent" points="123.93,-449.81 123.93,-509.81 537.93,-509.81 537.93,-449.81 123.93,-449.81"/>
<polygon fill="none" stroke="#29235c" points="123.93,-449.81 123.93,-509.81 537.93,-509.81 537.93,-449.81 123.93,-449.81"/>
<text text-anchor="start" x="141.53" y="-471.01" font-family="Helvetica,sans-Serif" font-weight="bold" font-size="32.00" fill="#ffffff"> &#160;&#160;&#160;&#160;&#160;&#160;PatientMedication &#160;&#160;&#160;&#160;&#160;&#160;</text>
<polygon fill="#e7e2dd" stroke="transparent" points="123.93,-389.81 123.93,-449.81 537.93,-449.81 537.93,-389.81 123.93,-389.81"/>
<polygon fill="none" stroke="#29235c" points="123.93,-389.81 123.93,-449.81 537.93,-449.81 537.93,-389.81 123.93,-389.81"/>
<text text-anchor="start" x="134.93" y="-411.01" font-family="Helvetica,sans-Serif" font-weight="bold" font-size="32.00" fill="#29235c">id</text>
<text text-anchor="start" x="159.82" y="-411.01" font-family="Helvetica,sans-Serif" font-size="32.00" fill="#29235c"> &#160;&#160;&#160;</text>
<text text-anchor="start" x="384.71" y="-411.01" font-family="Helvetica,sans-Serif" font-style="italic" font-size="32.00" fill="#29235c">INTEGER</text>
<polygon fill="#e7e2dd" stroke="transparent" points="123.93,-329.81 123.93,-389.81 537.93,-389.81 537.93,-329.81 123.93,-329.81"/>
<polygon fill="none" stroke="#29235c" points="123.93,-329.81 123.93,-389.81 537.93,-389.81 537.93,-329.81 123.93,-329.81"/>
<text text-anchor="start" x="134.93" y="-350.01" font-family="Helvetica,sans-Serif" font-size="32.00" fill="#29235c">patient_id &#160;&#160;&#160;</text>
<text text-anchor="start" x="384.71" y="-351.01" font-family="Helvetica,sans-Serif" font-style="italic" font-size="32.00" fill="#29235c">INTEGER</text>
<polygon fill="#e7e2dd" stroke="transparent" points="123.93,-269.81 123.93,-329.81 537.93,-329.81 537.93,-269.81 123.93,-269.81"/>
<polygon fill="none" stroke="#29235c" points="123.93,-269.81 123.93,-329.81 537.93,-329.81 537.93,-269.81 123.93,-269.81"/>
<text text-anchor="start" x="134.93" y="-290.01" font-family="Helvetica,sans-Serif" font-size="32.00" fill="#29235c">medication_id &#160;&#160;&#160;</text>
<text text-anchor="start" x="384.71" y="-291.01" font-family="Helvetica,sans-Serif" font-style="italic" font-size="32.00" fill="#29235c">INTEGER</text>
<polygon fill="#e7e2dd" stroke="transparent" points="123.93,-209.81 123.93,-269.81 537.93,-269.81 537.93,-209.81 123.93,-209.81"/>
<polygon fill="none" stroke="#29235c" points="123.93,-209.81 123.93,-269.81 537.93,-269.81 537.93,-209.81 123.93,-209.81"/>
<text text-anchor="start" x="134.64" y="-230.01" font-family="Helvetica,sans-Serif" font-size="32.00" fill="#29235c">taken_dosage &#160;&#160;&#160;</text>
<text text-anchor="start" x="370.71" y="-231.01" font-family="Helvetica,sans-Serif" font-style="italic" font-size="32.00" fill="#29235c">VARCHAR</text>
<polygon fill="#e7e2dd" stroke="transparent" points="123.93,-149.81 123.93,-209.81 537.93,-209.81 537.93,-149.81 123.93,-149.81"/>
<polygon fill="none" stroke="#29235c" points="123.93,-149.81 123.93,-209.81 537.93,-209.81 537.93,-149.81 123.93,-149.81"/>
<text text-anchor="start" x="134.93" y="-170.01" font-family="Helvetica,sans-Serif" font-size="32.00" fill="#29235c">start_date &#160;&#160;&#160;</text>
<text text-anchor="start" x="441.59" y="-171.01" font-family="Helvetica,sans-Serif" font-style="italic" font-size="32.00" fill="#29235c">DATE</text>
<polygon fill="#e7e2dd" stroke="transparent" points="123.93,-89.81 123.93,-149.81 537.93,-149.81 537.93,-89.81 123.93,-89.81"/>
<polygon fill="none" stroke="#29235c" points="123.93,-89.81 123.93,-149.81 537.93,-149.81 537.93,-89.81 123.93,-89.81"/>
<text text-anchor="start" x="134.93" y="-110.01" font-family="Helvetica,sans-Serif" font-size="32.00" fill="#29235c">end_date &#160;&#160;&#160;</text>
<text text-anchor="start" x="441.59" y="-111.01" font-family="Helvetica,sans-Serif" font-style="italic" font-size="32.00" fill="#29235c">DATE</text>
<polygon fill="none" stroke="#29235c" stroke-width="2" points="122.93,-88.81 122.93,-510.81 538.93,-510.81 538.93,-88.81 122.93,-88.81"/>
</g>
<!-- PatientMedication&#45;&gt;Patient -->
<!-- PatientMedication&#45;&gt;Patient -->
<g id="edge12" class="edge">
<title>PatientMedication:e&#45;&gt;Patient:w</title>
<path fill="none" stroke="#29235c" stroke-width="3" d="M538.93,-359.81C811.29,-359.81 543.03,-1540.26 801.67,-1570.23"/>
<polygon fill="#29235c" stroke="#29235c" stroke-width="3" points="801.73,-1573.74 811.91,-1570.81 802.12,-1566.75 801.73,-1573.74"/>
<text text-anchor="middle" x="805.69" y="-1580.41" font-family="Helvetica,sans-Serif" font-size="32.00" fill="#29235c">*</text>
<text text-anchor="middle" x="530.03" y="-331.01" font-family="Helvetica,sans-Serif" font-size="32.00" fill="#29235c">1</text>
</g>
<!-- PatientMedication&#45;&gt;Medication -->
<!-- PatientMedication&#45;&gt;Medication -->
<g id="edge10" class="edge">
<title>PatientMedication:e&#45;&gt;Medication:w</title>
<path fill="none" stroke="#29235c" stroke-width="3" d="M538.93,-299.81C658.29,-299.81 664.78,-413.11 777.75,-419.53"/>
<polygon fill="#29235c" stroke="#29235c" stroke-width="3" points="777.81,-423.03 787.91,-419.81 778.01,-416.04 777.81,-423.03"/>
<text text-anchor="middle" x="781.69" y="-391.01" font-family="Helvetica,sans-Serif" font-size="32.00" fill="#29235c">*</text>
<text text-anchor="middle" x="530.03" y="-271.01" font-family="Helvetica,sans-Serif" font-size="32.00" fill="#29235c">1</text>
</g>
<!-- TreatmentPlan -->
<g id="TreatmentPlan" class="node">
<title>TreatmentPlan</title>
<ellipse fill="none" stroke="black" stroke-width="0" cx="330.93" cy="-1280.81" rx="274.21" ry="214.92"/>
<polygon fill="#1d71b8" stroke="transparent" points="138.93,-1370.81 138.93,-1430.81 522.93,-1430.81 522.93,-1370.81 138.93,-1370.81"/>
<polygon fill="none" stroke="#29235c" points="138.93,-1370.81 138.93,-1430.81 522.93,-1430.81 522.93,-1370.81 138.93,-1370.81"/>
<text text-anchor="start" x="163.77" y="-1392.01" font-family="Helvetica,sans-Serif" font-weight="bold" font-size="32.00" fill="#ffffff"> &#160;&#160;&#160;&#160;&#160;&#160;TreatmentPlan &#160;&#160;&#160;&#160;&#160;&#160;</text>
<polygon fill="#e7e2dd" stroke="transparent" points="138.93,-1310.81 138.93,-1370.81 522.93,-1370.81 522.93,-1310.81 138.93,-1310.81"/>
<polygon fill="none" stroke="#29235c" points="138.93,-1310.81 138.93,-1370.81 522.93,-1370.81 522.93,-1310.81 138.93,-1310.81"/>
<text text-anchor="start" x="149.93" y="-1332.01" font-family="Helvetica,sans-Serif" font-weight="bold" font-size="32.00" fill="#29235c">id</text>
<text text-anchor="start" x="174.82" y="-1332.01" font-family="Helvetica,sans-Serif" font-size="32.00" fill="#29235c"> &#160;&#160;&#160;</text>
<text text-anchor="start" x="369.71" y="-1332.01" font-family="Helvetica,sans-Serif" font-style="italic" font-size="32.00" fill="#29235c">INTEGER</text>
<polygon fill="#e7e2dd" stroke="transparent" points="138.93,-1250.81 138.93,-1310.81 522.93,-1310.81 522.93,-1250.81 138.93,-1250.81"/>
<polygon fill="none" stroke="#29235c" points="138.93,-1250.81 138.93,-1310.81 522.93,-1310.81 522.93,-1250.81 138.93,-1250.81"/>
<text text-anchor="start" x="149.93" y="-1271.01" font-family="Helvetica,sans-Serif" font-size="32.00" fill="#29235c">patient_id &#160;&#160;&#160;</text>
<text text-anchor="start" x="369.71" y="-1272.01" font-family="Helvetica,sans-Serif" font-style="italic" font-size="32.00" fill="#29235c">INTEGER</text>
<polygon fill="#e7e2dd" stroke="transparent" points="138.93,-1190.81 138.93,-1250.81 522.93,-1250.81 522.93,-1190.81 138.93,-1190.81"/>
<polygon fill="none" stroke="#29235c" points="138.93,-1190.81 138.93,-1250.81 522.93,-1250.81 522.93,-1190.81 138.93,-1190.81"/>
<text text-anchor="start" x="149.78" y="-1211.01" font-family="Helvetica,sans-Serif" font-size="32.00" fill="#29235c">plan_details &#160;&#160;&#160;</text>
<text text-anchor="start" x="355.71" y="-1212.01" font-family="Helvetica,sans-Serif" font-style="italic" font-size="32.00" fill="#29235c">VARCHAR</text>
<polygon fill="#e7e2dd" stroke="transparent" points="138.93,-1130.81 138.93,-1190.81 522.93,-1190.81 522.93,-1130.81 138.93,-1130.81"/>
<polygon fill="none" stroke="#29235c" points="138.93,-1130.81 138.93,-1190.81 522.93,-1190.81 522.93,-1130.81 138.93,-1130.81"/>
<text text-anchor="start" x="149.93" y="-1151.01" font-family="Helvetica,sans-Serif" font-size="32.00" fill="#29235c">created_at &#160;&#160;&#160;</text>
<text text-anchor="start" x="350.16" y="-1152.01" font-family="Helvetica,sans-Serif" font-style="italic" font-size="32.00" fill="#29235c">DATETIME</text>
<polygon fill="none" stroke="#29235c" stroke-width="2" points="137.93,-1129.81 137.93,-1431.81 523.93,-1431.81 523.93,-1129.81 137.93,-1129.81"/>
</g>
<!-- TreatmentPlan&#45;&gt;Patient -->
<!-- TreatmentPlan&#45;&gt;Patient -->
<g id="edge14" class="edge">
<title>TreatmentPlan:e&#45;&gt;Patient:w</title>
<path fill="none" stroke="#29235c" stroke-width="3" d="M523.93,-1280.81C702.11,-1280.81 633.04,-1559.87 801.81,-1570.5"/>
<polygon fill="#29235c" stroke="#29235c" stroke-width="3" points="801.8,-1574 811.91,-1570.81 802.02,-1567.01 801.8,-1574"/>
<text text-anchor="middle" x="805.69" y="-1542.01" font-family="Helvetica,sans-Serif" font-size="32.00" fill="#29235c">*</text>
<text text-anchor="middle" x="515.03" y="-1290.41" font-family="Helvetica,sans-Serif" font-size="32.00" fill="#29235c">1</text>
</g>
</g>
</svg>
